<?xml version="1.0" standalone="no"?>
<!DOCTYPE svg PUBLIC "-//W3C//DTD SVG 20010904//EN"
 "http://www.w3.org/TR/2001/REC-SVG-20010904/DTD/svg10.dtd">
<svg version="1.0" xmlns="http://www.w3.org/2000/svg"
 width="96.000000pt" height="96.000000pt" viewBox="0 0 96.000000 96.000000"
 preserveAspectRatio="xMidYMid meet">
<metadata>
Created by potrace 1.14, written by Peter Selinger 2001-2017
</metadata>
<g transform="translate(0.000000,96.000000) scale(0.100000,-0.100000)"
fill="#000000" stroke="none">
<path d="M421 880 c-24 -11 -60 -20 -81 -20 -28 0 -44 -7 -61 -26 -13 -15 -39
-43 -57 -63 -41 -44 -59 -78 -56 -108 1 -13 2 -36 3 -53 0 -17 14 -44 33 -66
27 -31 36 -35 69 -32 l37 3 -19 -25 c-69 -88 -84 -110 -105 -158 -71 -157 -5
-276 150 -272 74 2 82 2 171 1 89 -1 113 -2 150 -5 52 -5 92 12 105 43 14 35
8 60 -26 96 -24 26 -24 29 -22 173 l3 147 42 -3 c34 -3 47 2 73 25 29 26 33
36 37 99 l5 69 -52 60 c-29 33 -58 66 -66 74 -7 8 -35 18 -61 22 -26 4 -66 14
-88 23 -55 21 -131 20 -184 -4z m207 -54 c52 -35 71 -84 74 -185 3 -68 0 -82
-22 -114 -32 -47 -90 -79 -148 -82 -62 -3 -99 8 -143 44 -51 43 -65 92 -52
190 12 90 35 130 91 161 55 30 146 24 200 -14z m-302 -28 c-17 -26 -36 -131
-36 -200 0 -41 -3 -48 -20 -48 -30 0 -60 36 -61 73 -3 68 1 82 33 112 18 17
41 42 51 58 10 15 24 27 32 27 14 0 14 -3 1 -22z m406 6 c7 -8 32 -37 55 -62
24 -26 43 -54 44 -62 5 -64 -15 -118 -48 -126 -13 -4 -26 -4 -29 -1 -3 3 -7
39 -9 81 -4 81 -20 151 -35 161 -13 8 -13 25 0 25 5 0 15 -7 22 -16z m-371
-340 c26 -31 93 -57 149 -58 59 0 149 28 152 47 1 7 4 -47 7 -120 6 -127 7
-133 34 -160 48 -51 30 -80 -48 -78 -37 2 -40 3 -42 35 -2 19 -12 44 -24 56
-16 17 -20 34 -19 70 2 70 2 74 -15 74 -8 0 -18 -11 -21 -26 -10 -39 1 -123
18 -137 20 -16 28 -41 18 -56 -8 -15 -88 -21 -119 -9 -27 10 -40 63 -35 151 3
63 1 74 -13 74 -8 0 -18 -8 -20 -16 -3 -12 -14 -16 -41 -13 -41 3 -68 -10 -58
-27 4 -6 22 -10 41 -9 19 1 38 -1 41 -5 3 -3 8 -30 10 -59 2 -29 6 -58 8 -64
9 -24 -14 -39 -57 -38 -126 3 -166 95 -100 232 26 55 97 152 112 152 5 0 14
-7 22 -16z"/>
<path d="M410 685 c-17 -46 23 -91 54 -60 14 14 13 18 -4 35 -11 11 -17 26
-14 35 4 10 0 15 -10 15 -9 0 -21 -11 -26 -25z"/>
<path d="M572 698 c-36 -36 5 -103 44 -73 19 15 19 15 0 30 -12 9 -17 22 -13
35 6 22 -12 27 -31 8z"/>
<path d="M498 592 c-21 -4 -21 -7 -8 -33 14 -25 46 -25 60 0 14 27 -10 43 -52
33z"/>
</g>
</svg>
